<svg width="54" height="49" viewBox="0 0 54 49" fill="none" xmlns="http://www.w3.org/2000/svg">
<path d="M43.2023 0.263885C41.5367 0.263885 12.9003 0.263885 11.0642 0.263885L0.95874 14.044L27.2404 48.6829L53.3049 14.04L43.2023 0.263885ZM15.3264 15.5579L22.731 37.6792L5.94683 15.5579H15.3264ZM18.5522 15.5579H35.7234L27.1967 41.3841L18.5522 15.5579ZM38.9448 15.5579H48.3351L31.6019 37.7981L38.9448 15.5579ZM41.6521 3.32269L48.3815 12.4991H38.9468L35.9358 3.32269H41.6521ZM32.7165 3.32269L35.7275 12.4991H18.5389L21.5499 3.32269H32.7165ZM12.6142 3.32269H18.3305L15.3195 12.4991H5.88484L12.6142 3.32269Z" fill="#F8D7A4"/>
</svg>
