<svg width="94" height="18" viewBox="0 0 94 18" fill="none" xmlns="http://www.w3.org/2000/svg">
<path d="M0.976711 12.6464V11.5834C1.22368 11.5727 1.42769 11.5404 1.58876 11.4868C1.76056 11.4331 1.88941 11.3096 1.97531 11.1163C2.07195 10.923 2.12027 10.6116 2.12027 10.1821V4.01334C2.12027 3.72343 2.12564 3.44425 2.13638 3.17581C2.15785 2.90737 2.17396 2.70335 2.1847 2.56376C2.0129 2.5745 1.79814 2.58524 1.54044 2.59597C1.28273 2.59597 1.09483 2.60134 0.976711 2.61208V1.37188H5.59927V2.43491C5.36305 2.44565 5.15903 2.47786 4.98723 2.53155C4.81542 2.58524 4.6812 2.70872 4.58457 2.902C4.49866 3.08454 4.45571 3.39593 4.45571 3.83617V10.005C4.45571 10.2949 4.45034 10.5687 4.43961 10.8264C4.42887 11.0841 4.41276 11.2827 4.39129 11.4223H6.54956C7.18308 11.4116 7.67701 11.1915 8.03135 10.762C8.39643 10.3217 8.57897 9.66135 8.57897 8.78087H9.65811L9.56147 12.6464H0.976711ZM13.7605 12.9041C13.1162 12.9041 12.5954 12.7806 12.1982 12.5337C11.8116 12.2867 11.527 11.9002 11.3445 11.374C11.1727 10.8479 11.0868 10.1714 11.0868 9.34459V7.49235C11.0868 7.29907 11.0922 7.07895 11.1029 6.83198C11.1136 6.57428 11.1244 6.32731 11.1351 6.09108C10.9633 6.10182 10.7593 6.11256 10.5231 6.12329C10.2976 6.12329 10.1258 6.12866 10.0077 6.1394V4.91531H10.1687C10.8345 4.91531 11.3606 4.86162 11.7472 4.75424C12.1337 4.64687 12.3807 4.53949 12.4881 4.43211H13.3739V9.3607C13.3739 10.0586 13.4652 10.5794 13.6477 10.923C13.8303 11.2559 14.1202 11.4223 14.5175 11.4223C14.7967 11.4223 15.0758 11.3472 15.355 11.1968C15.6449 11.0358 15.8812 10.8532 16.0637 10.6492V7.49235C16.0637 7.29907 16.0691 7.07895 16.0798 6.83198C16.0906 6.57428 16.1067 6.32731 16.1281 6.09108C15.9563 6.10182 15.7523 6.11256 15.5161 6.12329C15.2906 6.12329 15.1188 6.12866 15.0007 6.1394V4.91531H15.3872C15.8919 4.91531 16.3375 4.86162 16.7241 4.75424C17.1106 4.63613 17.3576 4.52875 17.465 4.43211H18.3508V10.0533C18.3508 10.2036 18.3455 10.4184 18.3347 10.6975C18.324 10.966 18.3079 11.2237 18.2864 11.4706C18.4582 11.4492 18.6461 11.4384 18.8501 11.4384C19.0649 11.4277 19.226 11.4223 19.3333 11.4223V12.6464H16.2731C16.2624 12.5068 16.2463 12.3672 16.2248 12.2277C16.214 12.0881 16.1979 11.9485 16.1765 11.8089C15.8436 12.0881 15.4839 12.3404 15.0973 12.5659C14.7215 12.7914 14.2759 12.9041 13.7605 12.9041ZM20.3668 12.6464V11.6156C20.5815 11.5297 20.7856 11.3955 20.9788 11.2129C21.1721 11.0304 21.3761 10.8157 21.5909 10.5687L22.9921 8.95804C22.8203 8.75402 22.6432 8.55001 22.4606 8.34599C22.2888 8.13124 22.117 7.92185 21.9452 7.71784C21.7734 7.51382 21.5962 7.30981 21.4137 7.10579C21.2849 6.94473 21.1184 6.73534 20.9144 6.47764C20.7104 6.2092 20.5708 5.97834 20.4956 5.78506L20.0608 5.81727V4.59318H23.6203V5.62399C23.3196 5.63473 23.1854 5.73137 23.2176 5.91391C23.2606 6.08571 23.3787 6.28436 23.572 6.50985L24.3129 7.3796L24.941 6.6387C25.0699 6.48838 25.1987 6.33805 25.3276 6.18772C25.4564 6.03739 25.5907 5.89244 25.7302 5.75285L24.941 5.81727V4.59318H27.7758V5.62399C27.561 5.70989 27.357 5.81727 27.1637 5.94612C26.9812 6.07498 26.8094 6.21993 26.6483 6.381C26.4873 6.53133 26.3262 6.7085 26.1651 6.91251L25.086 8.23325L26.9543 10.4076C27.1047 10.5794 27.2443 10.7512 27.3731 10.923C27.502 11.0841 27.6201 11.2613 27.7274 11.4545L28.2751 11.4223V12.6464H24.4739V11.6156C24.8175 11.5941 24.9947 11.5136 25.0055 11.374C25.0269 11.2237 24.941 11.0411 24.7477 10.8264L23.7814 9.81168L23.0244 10.7136C22.9707 10.7888 22.8579 10.9177 22.6861 11.1002C22.5251 11.2827 22.3962 11.4116 22.2996 11.4868L23.0405 11.4223V12.6464H20.3668ZM38.3392 4.96363C38.2319 3.95429 37.8775 3.17044 37.2762 2.61208C36.6856 2.05372 35.9233 1.77454 34.9891 1.77454C34.42 1.77454 33.8831 1.89803 33.3784 2.14499C32.8845 2.38122 32.4496 2.72483 32.0738 3.17581C31.698 3.62679 31.4027 4.16904 31.188 4.80256C30.9732 5.43608 30.8658 6.15014 30.8658 6.94473C30.8658 7.95407 31.0591 8.84529 31.4457 9.6184C31.8322 10.3915 32.353 10.9928 33.008 11.4223C33.663 11.8518 34.3878 12.0666 35.1824 12.0666C35.8803 12.0666 36.5675 11.9109 37.244 11.5995C37.9205 11.2774 38.4735 10.8157 38.903 10.2143L39.3217 10.5526C38.86 11.1861 38.3607 11.6747 37.8238 12.0183C37.2869 12.3619 36.7501 12.5927 36.2132 12.7108C35.687 12.8397 35.2038 12.9041 34.7636 12.9041C33.9583 12.9041 33.2174 12.7592 32.5409 12.4693C31.8752 12.1793 31.2953 11.7767 30.8014 11.2613C30.3182 10.7351 29.9424 10.1284 29.6739 9.44123C29.4162 8.74328 29.2874 7.99165 29.2874 7.18632C29.2874 6.42395 29.4001 5.68305 29.6256 4.96363C29.8619 4.2442 30.2108 3.59458 30.6725 3.01474C31.1343 2.43491 31.7141 1.97319 32.412 1.62958C33.1207 1.28598 33.9422 1.11418 34.8763 1.11418C35.4776 1.11418 36.0467 1.19471 36.5836 1.35577C37.1205 1.51684 37.6359 1.7638 38.1299 2.09667L38.0493 1.22692H38.9191V4.96363H38.3392ZM45.6873 12.1632C46.0202 12.1632 46.251 12.0827 46.3799 11.9216C46.5087 11.7498 46.5839 11.519 46.6054 11.2291C46.6269 10.9284 46.6376 10.5848 46.6376 10.1982V7.94333C46.6376 7.01989 46.4873 6.32731 46.1866 5.86559C45.8967 5.40387 45.435 5.17838 44.8015 5.18912C44.4042 5.19986 44.0122 5.2965 43.6257 5.47904C43.2499 5.66158 42.9438 5.8978 42.7076 6.18772V10.9391C42.7076 11.1539 42.7022 11.3472 42.6915 11.519C42.6808 11.68 42.6593 11.8518 42.6271 12.0344C42.7989 12.0236 42.9653 12.0183 43.1264 12.0183C43.2982 12.0075 43.47 11.9968 43.6418 11.9861V12.6464H40.3561V12.1632C40.6889 12.1632 40.9198 12.0827 41.0486 11.9216C41.1775 11.7498 41.2527 11.519 41.2741 11.2291C41.3064 10.9284 41.3225 10.5848 41.3225 10.1982V2.57987C41.3225 2.40806 41.3225 2.247 41.3225 2.09667C41.3332 1.93561 41.3493 1.7477 41.3708 1.53294C41.1775 1.54368 40.9842 1.55442 40.7909 1.56516C40.6084 1.5759 40.4205 1.58663 40.2272 1.59737V0.920898C40.6997 0.920898 41.0648 0.899423 41.3225 0.856472C41.5909 0.813522 41.7895 0.759833 41.9184 0.695408C42.058 0.630982 42.1654 0.561187 42.2405 0.486023H42.7076V5.3985C42.9438 5.19449 43.2069 5.01732 43.4968 4.86699C43.7975 4.70592 44.1035 4.57707 44.4149 4.48043C44.737 4.38379 45.0484 4.33547 45.3491 4.33547C46.2833 4.33547 46.9544 4.63076 47.3624 5.22133C47.7812 5.80117 47.9959 6.7085 48.0067 7.94333L48.0228 10.9391C48.0228 11.1539 48.0174 11.3472 48.0067 11.519C48.0067 11.68 47.9905 11.8518 47.9583 12.0344C48.1301 12.0236 48.2966 12.0183 48.4576 12.0183C48.6294 12.0075 48.8012 11.9968 48.973 11.9861V12.6464H45.6873V12.1632ZM55.0554 12.6464C55.0232 12.4639 55.0017 12.3028 54.991 12.1632C54.9802 12.0236 54.9641 11.8787 54.9426 11.7284C54.5776 12.0934 54.1803 12.3834 53.7508 12.5981C53.332 12.8021 52.8864 12.9041 52.4139 12.9041C51.5979 12.9041 50.9912 12.7216 50.5939 12.3565C50.1966 11.9807 49.9979 11.5243 49.9979 10.9875C49.9979 10.4935 50.1483 10.0694 50.4489 9.71504C50.7603 9.34996 51.1576 9.05468 51.6408 8.82919C52.1347 8.59296 52.6663 8.42115 53.2353 8.31378C53.8152 8.19566 54.3735 8.14198 54.9104 8.15271V7.15411C54.9104 6.77829 54.8782 6.42395 54.8138 6.09108C54.7494 5.75821 54.6098 5.4844 54.395 5.26965C54.1803 5.0549 53.8367 4.94215 53.3642 4.93141C53.0528 4.92068 52.7307 4.97973 52.3978 5.10859C52.0757 5.23744 51.8395 5.45756 51.6891 5.76895C51.775 5.85485 51.8287 5.95686 51.8502 6.07498C51.8824 6.18235 51.8985 6.28436 51.8985 6.381C51.8985 6.50985 51.8448 6.66018 51.7374 6.83198C51.6301 6.99305 51.4422 7.06821 51.1737 7.05747C50.9482 7.05747 50.7764 6.98231 50.6583 6.83198C50.5402 6.67092 50.4811 6.48301 50.4811 6.26825C50.4811 5.90317 50.6154 5.57567 50.8838 5.28576C51.163 4.99584 51.5442 4.76498 52.0274 4.59318C52.5106 4.42138 53.0582 4.33547 53.6702 4.33547C54.5722 4.33547 55.2379 4.57707 55.6674 5.06027C56.0969 5.53272 56.3063 6.28436 56.2956 7.31517C56.2956 7.71247 56.2956 8.11513 56.2956 8.52316C56.2956 8.92046 56.2902 9.32312 56.2795 9.73115C56.2795 10.1284 56.2795 10.5311 56.2795 10.9391C56.2795 11.1109 56.2741 11.2827 56.2634 11.4545C56.2526 11.6263 56.2365 11.8196 56.215 12.0344C56.4083 12.0236 56.5962 12.0129 56.7788 12.0022C56.9721 11.9914 57.1653 11.9807 57.3586 11.97V12.6464H55.0554ZM54.9104 8.70033C54.5453 8.71107 54.1588 8.75939 53.7508 8.84529C53.3535 8.92046 52.983 9.03857 52.6394 9.19963C52.3065 9.3607 52.0327 9.57545 51.818 9.84389C51.614 10.1016 51.5173 10.4184 51.5281 10.7942C51.5495 11.1915 51.6784 11.4921 51.9146 11.6961C52.1616 11.8894 52.4515 11.9861 52.7844 11.9861C53.2246 11.9861 53.6058 11.9055 53.9279 11.7445C54.2608 11.5727 54.5883 11.3364 54.9104 11.0358C54.8997 10.9177 54.8943 10.7888 54.8943 10.6492C54.8943 10.5096 54.8943 10.3647 54.8943 10.2143C54.8943 10.1607 54.8943 9.98885 54.8943 9.69894C54.9051 9.40902 54.9104 9.07615 54.9104 8.70033ZM62.8449 0.405491C63.2422 0.394753 63.5482 0.464548 63.763 0.614875C63.9777 0.754465 64.0851 0.96385 64.0851 1.24303C64.0851 1.31819 64.0636 1.40946 64.0207 1.51684C63.9884 1.62422 63.924 1.71549 63.8274 1.79065C63.7307 1.85507 63.6019 1.88729 63.4408 1.88729C63.2368 1.88729 63.0757 1.81212 62.9576 1.6618C62.8395 1.51147 62.7858 1.31819 62.7966 1.08196C62.7643 1.06049 62.6999 1.04438 62.6033 1.03364C62.5066 1.01217 62.4154 1.0068 62.3295 1.01754C62.0718 1.03901 61.857 1.14639 61.6852 1.33967C61.5241 1.52221 61.3899 1.77454 61.2826 2.09667C61.1752 2.40806 61.0893 2.77851 61.0248 3.20802C60.9604 3.62679 60.9067 4.08851 60.8638 4.59318H63.1509L63.1026 5.22133L60.8155 5.25354C60.8047 5.53272 60.7886 5.81727 60.7671 6.10719C60.7564 6.39711 60.7403 6.69776 60.7188 7.00915C60.7081 7.30981 60.692 7.61583 60.6705 7.92722C60.649 8.22788 60.6222 8.5339 60.59 8.84529C60.5148 9.62914 60.445 10.413 60.3806 11.1968C60.3162 11.97 60.2195 12.7055 60.0907 13.4034C59.9726 14.1014 59.7954 14.7188 59.5592 15.2557C59.3229 15.8033 58.9954 16.2328 58.5767 16.5442C58.1686 16.8556 57.6425 17.0113 56.9982 17.0113C56.5902 17.0113 56.2788 16.9361 56.064 16.7858C55.8493 16.6462 55.7419 16.4422 55.7419 16.1737C55.7419 16.0878 55.7634 15.9912 55.8063 15.8838C55.8493 15.7872 55.9191 15.6959 56.0157 15.61C56.1124 15.5349 56.2412 15.5026 56.4023 15.5134C56.5956 15.5241 56.7513 15.5939 56.8694 15.7228C56.9767 15.8624 57.0304 16.0395 57.0304 16.2543C57.1486 16.3402 57.3042 16.3831 57.4975 16.3831C57.8733 16.3831 58.1579 16.1845 58.3512 15.7872C58.5552 15.3899 58.7055 14.8369 58.8022 14.1282C58.8988 13.4303 58.974 12.6196 59.0276 11.6961C59.0921 10.762 59.1726 9.76336 59.2692 8.70033C59.2907 8.41042 59.3122 8.1205 59.3337 7.83058C59.3551 7.54067 59.3766 7.25075 59.3981 6.96083C59.4196 6.67092 59.441 6.38637 59.4625 6.10719C59.4947 5.81727 59.5269 5.53809 59.5592 5.26965L58.1418 5.28576L58.2223 4.59318H59.6397C59.7578 3.80933 59.9296 3.10601 60.1551 2.48323C60.3806 1.86044 60.7081 1.36114 61.1376 0.985325C61.5671 0.609506 62.1362 0.416228 62.8449 0.405491ZM68.0826 0.405491C68.4799 0.394753 68.786 0.464548 69.0007 0.614875C69.2155 0.754465 69.3228 0.96385 69.3228 1.24303C69.3228 1.31819 69.3014 1.40946 69.2584 1.51684C69.2262 1.62422 69.1618 1.71549 69.0651 1.79065C68.9685 1.85507 68.8396 1.88729 68.6786 1.88729C68.4746 1.88729 68.3135 1.81212 68.1954 1.6618C68.0773 1.51147 68.0236 1.31819 68.0343 1.08196C68.0021 1.06049 67.9377 1.04438 67.841 1.03364C67.7444 1.01217 67.6531 1.0068 67.5672 1.01754C67.3095 1.03901 67.0948 1.14639 66.923 1.33967C66.7619 1.52221 66.6277 1.77454 66.5203 2.09667C66.4129 2.40806 66.327 2.77851 66.2626 3.20802C66.1982 3.62679 66.1445 4.08851 66.1015 4.59318H68.3887L68.3403 5.22133L66.0532 5.25354C66.0425 5.53272 66.0264 5.81727 66.0049 6.10719C65.9942 6.39711 65.9781 6.69776 65.9566 7.00915C65.9458 7.30981 65.9297 7.61583 65.9083 7.92722C65.8868 8.22788 65.8599 8.5339 65.8277 8.84529C65.7526 9.62914 65.6828 10.413 65.6183 11.1968C65.5539 11.97 65.4573 12.7055 65.3284 13.4034C65.2103 14.1014 65.0331 14.7188 64.7969 15.2557C64.5607 15.8033 64.2332 16.2328 63.8144 16.5442C63.4064 16.8556 62.8802 17.0113 62.236 17.0113C61.8279 17.0113 61.5166 16.9361 61.3018 16.7858C61.0871 16.6462 60.9797 16.4422 60.9797 16.1737C60.9797 16.0878 61.0011 15.9912 61.0441 15.8838C61.0871 15.7872 61.1568 15.6959 61.2535 15.61C61.3501 15.5349 61.479 15.5026 61.64 15.5134C61.8333 15.5241 61.989 15.5939 62.1071 15.7228C62.2145 15.8624 62.2682 16.0395 62.2682 16.2543C62.3863 16.3402 62.542 16.3831 62.7353 16.3831C63.1111 16.3831 63.3956 16.1845 63.5889 15.7872C63.7929 15.3899 63.9433 14.8369 64.0399 14.1282C64.1365 13.4303 64.2117 12.6196 64.2654 11.6961C64.3298 10.762 64.4104 9.76336 64.507 8.70033C64.5285 8.41042 64.5499 8.1205 64.5714 7.83058C64.5929 7.54067 64.6144 7.25075 64.6358 6.96083C64.6573 6.67092 64.6788 6.38637 64.7003 6.10719C64.7325 5.81727 64.7647 5.53809 64.7969 5.26965L63.3795 5.28576L63.4601 4.59318H64.8774C64.9956 3.80933 65.1674 3.10601 65.3929 2.48323C65.6183 1.86044 65.9458 1.36114 66.3753 0.985325C66.8049 0.609506 67.3739 0.416228 68.0826 0.405491ZM72.8372 12.9041C72.0963 12.9041 71.4252 12.7323 70.8239 12.3887C70.2333 12.0344 69.7662 11.5404 69.4226 10.9069C69.079 10.2627 68.9072 9.50566 68.9072 8.63591C68.9072 7.88427 69.0736 7.18095 69.4065 6.52596C69.7501 5.87096 70.2279 5.34481 70.84 4.94752C71.452 4.53949 72.1607 4.33547 72.9661 4.33547C73.417 4.33547 73.8358 4.41064 74.2224 4.56097C74.6197 4.70055 74.9686 4.92068 75.2693 5.22133C75.5699 5.51125 75.8062 5.8817 75.978 6.33268C76.1498 6.77292 76.2357 7.2937 76.2357 7.89501L70.5662 7.99165C70.5662 8.80771 70.6521 9.52713 70.8239 10.1499C71.0064 10.762 71.2963 11.2398 71.6936 11.5834C72.0909 11.9163 72.601 12.0827 73.2238 12.0827C73.5566 12.0827 73.8949 12.0236 74.2385 11.9055C74.5928 11.7874 74.9203 11.6263 75.221 11.4223C75.5216 11.2183 75.7632 10.9928 75.9458 10.7459L76.3323 11.068C76.0424 11.519 75.6934 11.8787 75.2854 12.1471C74.8774 12.4156 74.4586 12.6088 74.0291 12.727C73.5996 12.8451 73.2023 12.9041 72.8372 12.9041ZM70.6145 7.31517H74.7217C74.7217 6.92862 74.6626 6.55817 74.5445 6.20383C74.4371 5.83875 74.2546 5.54346 73.9969 5.31797C73.7392 5.08174 73.4009 4.96363 72.9822 4.96363C72.3594 4.96363 71.8386 5.15154 71.4198 5.52735C71.0118 5.89244 70.7434 6.48838 70.6145 7.31517ZM81.0675 12.9041C80.4877 12.9041 79.9991 12.7968 79.6018 12.582C79.2152 12.3672 78.92 12.0022 78.7159 11.4868C78.5227 10.9713 78.426 10.2734 78.426 9.39291V6.52596C78.426 6.35415 78.426 6.18235 78.426 6.01055C78.4368 5.83875 78.4582 5.66158 78.4905 5.47904C78.3079 5.48977 78.12 5.50051 77.9267 5.51125C77.7442 5.51125 77.5616 5.51662 77.3791 5.52735V4.86699H77.8784C78.3401 4.86699 78.673 4.82404 78.877 4.73814C79.0918 4.6415 79.2582 4.53949 79.3763 4.43211H79.8434V9.34459C79.8434 10.268 79.9722 10.9606 80.23 11.4223C80.4984 11.8733 80.9494 12.0934 81.5829 12.0827C81.9909 12.072 82.3775 11.9485 82.7426 11.7122C83.1184 11.4653 83.419 11.1754 83.6445 10.8425V6.70313C83.6445 6.44542 83.6499 6.2253 83.6606 6.04276C83.6714 5.84948 83.6928 5.66158 83.7251 5.47904C83.5318 5.48977 83.3385 5.50051 83.1452 5.51125C82.9519 5.51125 82.7587 5.51662 82.5654 5.52735V4.86699H83.0647C83.5264 4.86699 83.8593 4.82404 84.0633 4.73814C84.2781 4.6415 84.4445 4.53949 84.5626 4.43211H85.0297L85.0136 10.5204C85.0136 10.6922 85.0082 10.9338 84.9975 11.2452C84.9867 11.5566 84.9706 11.8196 84.9492 12.0344C85.1424 12.0236 85.3357 12.0129 85.529 12.0022C85.7223 11.9914 85.9155 11.9807 86.1088 11.97V12.6464H83.8056C83.7734 12.4639 83.7465 12.2921 83.7251 12.131C83.7143 11.97 83.7036 11.8196 83.6928 11.68C83.36 12.0129 82.9573 12.3028 82.4849 12.5498C82.0124 12.786 81.5399 12.9041 81.0675 12.9041ZM87.2794 12.1632C87.6123 12.1632 87.8432 12.0827 87.972 11.9216C88.1009 11.7498 88.176 11.519 88.1975 11.2291C88.219 10.9284 88.2297 10.5848 88.2297 10.1982V6.52596C88.2297 6.35415 88.2297 6.18235 88.2297 6.01055C88.2405 5.83875 88.2619 5.66158 88.2941 5.47904C88.1009 5.48977 87.9076 5.50051 87.7143 5.51125C87.5318 5.51125 87.3439 5.51662 87.1506 5.52735V4.86699H87.6499C88.1116 4.86699 88.4284 4.82404 88.6002 4.73814C88.7827 4.6415 88.933 4.53949 89.0511 4.43211H89.5182C89.5397 4.60392 89.5558 4.81867 89.5666 5.07637C89.5773 5.32334 89.588 5.6401 89.5988 6.02666C89.7598 5.75821 89.98 5.49514 90.2591 5.23744C90.5383 4.97973 90.8497 4.76498 91.1933 4.59318C91.5477 4.42138 91.9181 4.33547 92.3047 4.33547C92.6053 4.33547 92.8684 4.41601 93.0939 4.57707C93.3194 4.73814 93.4321 4.99584 93.4321 5.35018C93.4321 5.43608 93.4053 5.54346 93.3516 5.67231C93.2979 5.79043 93.212 5.8978 93.0939 5.99444C92.9758 6.08034 92.8201 6.12329 92.6268 6.12329C92.3906 6.11256 92.2026 6.02129 92.0631 5.84948C91.9235 5.66694 91.8698 5.45756 91.902 5.22133C91.6336 5.21059 91.3544 5.28039 91.0645 5.43072C90.7853 5.58104 90.5222 5.79043 90.2752 6.05887C90.0283 6.31657 89.8082 6.6226 89.6149 6.97694L89.631 10.9391C89.631 11.1539 89.6256 11.3472 89.6149 11.519C89.6149 11.68 89.5988 11.8518 89.5666 12.0344C89.7384 12.0236 89.9048 12.0183 90.0659 12.0183C90.2377 12.0075 90.4095 11.9968 90.5813 11.9861V12.6464H87.2794V12.1632Z" fill="#A55C30"/>
</svg>
