<svg width="45" height="52" viewBox="0 0 45 52" fill="none" xmlns="http://www.w3.org/2000/svg">
<path d="M44.2908 38.1904C44.2896 36.5861 43.8207 35.0108 42.9323 33.6259C42.0439 32.241 40.7677 31.0962 39.2345 30.3086L30.5333 25.8467C31.3633 25.216 32.047 24.4409 32.5445 23.5665C33.042 22.6921 33.3432 21.7361 33.4306 20.7544L35.8946 19.6309C36.2506 19.4702 36.5501 19.2218 36.759 18.9137C36.9679 18.6057 37.0779 18.2505 37.0765 17.8883V16.5845C37.075 16.068 36.8499 15.573 36.4503 15.2069C36.1704 14.9499 35.8172 14.7696 35.4306 14.6864C35.044 14.6032 34.6396 14.6203 34.2632 14.736L33.4693 14.9773V12.9731L34.3284 12.3018C34.6248 12.0704 34.8628 11.7832 35.0258 11.4599C35.1889 11.1366 35.2732 10.785 35.2729 10.4292V9.54127C35.2715 9.18579 35.1854 8.83482 35.0204 8.51273C34.8554 8.19063 34.6155 7.90511 34.3174 7.67599L34.3363 7.67105L33.2804 4.30119C33.0083 3.44388 32.4387 2.69005 31.6571 2.15264C30.8755 1.61522 29.9239 1.32318 28.9449 1.32025H16.3506C15.3716 1.32318 14.42 1.61522 13.6384 2.15264C12.8568 2.69005 12.2872 3.44388 12.0151 4.30119L10.9592 7.67107L10.9781 7.676C10.68 7.90513 10.4401 8.19064 10.2751 8.51273C10.1101 8.83483 10.0239 9.18579 10.0226 9.54127V10.4292C10.0223 10.785 10.1066 11.1366 10.2696 11.4599C10.4327 11.7832 10.6706 12.0704 10.9671 12.3018L11.8262 12.973V14.9773L11.0323 14.736C10.6559 14.6204 10.2515 14.6033 9.8649 14.6865C9.47834 14.7697 9.12508 14.95 8.84516 15.2069C8.44553 15.573 8.22051 16.0681 8.219 16.5845V17.8883C8.21757 18.2504 8.32751 18.6056 8.53633 18.9137C8.74515 19.2217 9.04451 19.4702 9.40041 19.6309L11.8648 20.7544C11.9522 21.7362 12.2535 22.6922 12.751 23.5665C13.2485 24.4409 13.9322 25.2161 14.7621 25.8467L6.06094 30.3086C4.52774 31.0962 3.25162 32.241 2.36318 33.6259C1.47475 35.0108 1.0059 36.5861 1.00464 38.1904V50.6464H44.2908V38.1904ZM38.4901 31.8251L32.1624 38.3148H28.9603V42.1765L25.9062 46.3528L27.125 38.5757L32.8328 28.9123L38.3503 31.7416C38.3993 31.7668 38.4419 31.7991 38.4901 31.8251ZM17.8737 27.9454C18.7076 28.4914 19.6479 28.8878 20.6444 29.1134L20.5799 29.1722C20.0727 29.6347 19.7878 30.2619 19.7878 30.9159C19.7878 31.5699 20.0727 32.1972 20.5799 32.6597L20.6767 32.7479L18.9482 36.4245L14.0348 28.1061L16.3363 26.926L17.8737 27.9454ZM28.9592 26.926L31.2606 28.1061L26.3472 36.4245L24.6188 32.7479L24.7155 32.6597C25.2227 32.1972 25.5077 31.5699 25.5077 30.9159C25.5077 30.2619 25.2227 29.6347 24.7155 29.1722L24.6511 29.1134C25.6476 28.8878 26.5879 28.4914 27.4218 27.9454L28.9592 26.926ZM22.0102 31.6385L21.8552 31.4972C21.6864 31.3429 21.5916 31.1338 21.5916 30.9159C21.5916 30.698 21.6864 30.489 21.8552 30.3347L22.0102 30.1934C22.1794 30.0394 22.4087 29.9529 22.6478 29.9529C22.8868 29.9529 23.1161 30.0394 23.2854 30.1934L23.4404 30.3347C23.6091 30.489 23.7039 30.698 23.7039 30.9159C23.7039 31.1338 23.6091 31.3429 23.4404 31.4972L23.2854 31.6385C23.1161 31.7923 22.8868 31.8787 22.6478 31.8787C22.4087 31.8787 22.1794 31.7923 22.0102 31.6385ZM19.9691 38.4266L22.2892 33.4913C22.526 33.5338 22.7696 33.5338 23.0063 33.4913L25.3265 38.4266L23.6694 49.0022H21.6261L19.9691 38.4266ZM34.8339 16.2959C34.884 16.2807 34.9374 16.2765 34.9897 16.2838C35.0419 16.2911 35.0915 16.3096 35.1344 16.3378C35.1773 16.366 35.2122 16.403 35.2363 16.4459C35.2603 16.4888 35.2729 16.5363 35.2729 16.5845V17.8883C35.2731 17.9448 35.256 18.0003 35.2234 18.0483C35.1908 18.0964 35.144 18.1351 35.0884 18.1601L33.4693 18.8982V16.7107L34.8339 16.2959ZM31.6657 12.2168L28.4852 14.7023C27.9946 15.0852 27.3701 15.2958 26.7243 15.296H18.5712C17.9255 15.2958 17.3011 15.0853 16.8107 14.7023L13.6298 12.2167V12.0076H31.6657V12.2168ZM33.4693 10.3634H11.8262V9.54127C11.8265 9.32332 11.9216 9.11438 12.0907 8.96027C12.2597 8.80616 12.4889 8.71945 12.728 8.71917H32.5675C32.8066 8.71945 33.0358 8.80616 33.2048 8.96027C33.3739 9.11438 33.469 9.32332 33.4693 9.54127V10.3634ZM13.7491 4.75317C13.9123 4.2387 14.254 3.78631 14.7231 3.46383C15.1921 3.14134 15.7631 2.96613 16.3506 2.96446H28.9449C29.5324 2.96613 30.1034 3.14134 30.5724 3.46383C31.0414 3.78631 31.3832 4.2387 31.5464 4.75317L32.2738 7.07497H13.0216L13.7491 4.75317ZM10.0226 17.8883V16.5845C10.0226 16.5363 10.0351 16.4888 10.0592 16.4459C10.0833 16.403 10.1182 16.366 10.1611 16.3378C10.2039 16.3096 10.2535 16.2911 10.3058 16.2838C10.3581 16.2765 10.4115 16.2807 10.4616 16.2959L11.8262 16.7107V18.8983L10.2067 18.16C10.1512 18.135 10.1045 18.0962 10.072 18.0482C10.0394 18.0002 10.0223 17.9448 10.0226 17.8883ZM13.6298 20.168V14.3822L15.6372 15.9507C16.4545 16.589 17.495 16.9399 18.5712 16.9402H26.7243C27.8005 16.9398 28.8412 16.5889 29.6586 15.9507L31.6657 14.3824V20.168C31.6642 21.0754 31.428 21.9697 30.9763 22.7784C30.5246 23.587 29.8701 24.2872 29.066 24.822L26.3606 26.6159C25.2826 27.3333 23.9824 27.7199 22.6477 27.7199C21.313 27.7199 20.0129 27.3333 18.9349 26.6159L16.2295 24.822C15.4254 24.2872 14.7709 23.587 14.3192 22.7784C13.8675 21.9697 13.6313 21.0754 13.6298 20.168ZM12.4627 28.9123L18.1705 38.5758L19.3893 46.3528L16.3352 42.1765V38.3148H13.1331L6.80532 31.8251C6.8536 31.7991 6.89614 31.7668 6.9451 31.7416L12.4627 28.9123ZM2.80823 38.1904C2.81036 37.1838 3.03772 36.1881 3.47639 35.2643C3.91506 34.3405 4.55582 33.508 5.3595 32.8176L12.3229 39.959H14.5316V42.6742L19.1592 49.0022H11.8262V43.2475H10.0226V49.0022H2.80823V38.1904ZM42.4872 49.0022H35.2729V43.2475H33.4693V49.0022H26.1363L30.7639 42.6742V39.959H32.9726L39.936 32.8176C40.7396 33.508 41.3804 34.3405 41.8191 35.2643C42.2577 36.1881 42.4851 37.1838 42.4872 38.1904V49.0022Z" fill="#F8D7A4" stroke="#F8D7A4" stroke-width="0.754992"/>
</svg>
