<svg width="54" height="53" viewBox="0 0 54 53" fill="none" xmlns="http://www.w3.org/2000/svg">
<path d="M31.4648 45.1684H46.0459V48.9074H31.4648V45.1684Z" fill="#F8D7A4"/>
<path d="M31.4648 37.6904H53.3364V41.4294H31.4648V37.6904Z" fill="#F8D7A4"/>
<path d="M31.4648 30.2124H53.3364V33.9514H31.4648V30.2124Z" fill="#F8D7A4"/>
<path d="M36.1108 17.5315L27.8196 0.300293L19.5285 17.5315L0.990479 20.2946L14.405 33.7083L11.2373 52.6464L24.1744 45.6713V41.4462L16.08 45.8115L17.9975 34.3402L18.3219 32.4015L16.9494 31.0312L8.82415 22.9045L20.0534 21.2313L21.9489 20.949L22.7983 19.186L27.8196 8.74858L32.841 19.186L33.6903 20.949L35.5858 21.2313L49.1717 23.2597L49.6912 19.5562L36.1108 17.5315Z" fill="#F8D7A4"/>
</svg>
