<svg width="50" height="50" viewBox="0 0 50 50" fill="none" xmlns="http://www.w3.org/2000/svg">
<path d="M45.3125 27.3437H7.8125V9.76561C7.81069 9.10363 7.9402 8.44787 8.19353 7.83628C8.44687 7.22469 8.819 6.66943 9.28838 6.20263L9.32744 6.16356C10.063 5.42904 11.0075 4.93952 12.0317 4.76191C13.056 4.58429 14.1101 4.72722 15.0501 5.17118C14.1624 6.64715 13.7934 8.37746 14.0018 10.0872C14.2102 11.7969 14.984 13.3879 16.2003 14.6074L17.2697 15.6768L15.3013 17.6454L17.5108 19.855L19.4793 17.8865L30.3864 6.97958L32.3549 5.01112L30.1452 2.80145L28.1767 4.76991L27.1072 3.70048C25.8268 2.42365 24.139 1.63657 22.3379 1.47639C20.5367 1.31621 18.7365 1.79308 17.2509 2.82391C15.6843 1.83457 13.8278 1.40747 11.9864 1.61276C10.145 1.81805 8.4281 2.64354 7.11787 3.9536L7.07881 3.99266C6.3183 4.74901 5.71537 5.64868 5.3049 6.63961C4.89443 7.63054 4.68458 8.69304 4.6875 9.76561V27.3437H1.5625V30.4687H4.6875V33.4668C4.68743 33.7187 4.72806 33.969 4.80781 34.2079L7.71484 42.9286C7.86998 43.3955 8.16828 43.8016 8.56739 44.0893C8.96649 44.377 9.4461 44.5316 9.93809 44.5312H11.1979L10.0586 48.4375H13.3138L14.4531 44.5312H34.7754L35.9473 48.4375H39.209L38.0371 44.5312H40.0615C40.5536 44.5317 41.0333 44.3771 41.4325 44.0894C41.8316 43.8017 42.13 43.3956 42.2852 42.9286L45.192 34.2079C45.2718 33.9689 45.3125 33.7187 45.3125 33.4668V30.4687H48.4375V27.3437H45.3125ZM18.4102 5.91015C19.2711 5.05108 20.4376 4.56863 21.6539 4.56863C22.8701 4.56863 24.0366 5.05108 24.8976 5.91015L25.9668 6.97958L19.4796 13.4668L18.4102 12.3975C17.5511 11.5366 17.0687 10.37 17.0687 9.15385C17.0687 7.93764 17.5511 6.7711 18.4102 5.91015ZM42.1875 33.3398L39.4988 41.4062H10.5012L7.8125 33.3398V30.4687H42.1875V33.3398Z" fill="#828282"/>
</svg>
