<svg width="50" height="50" viewBox="0 0 50 50" fill="none" xmlns="http://www.w3.org/2000/svg">
<path d="M40.625 21.875H20.3125V33.6542H18.149V29.6503C18.1465 27.3818 17.2442 25.2069 15.6402 23.6027C14.0361 21.9986 11.8612 21.0963 9.59268 21.0938H4.6875V14.8438H1.5625V48.4375H4.6875V43.7751L45.3125 44.1001V48.4375H48.4375V29.6875C48.4351 27.6162 47.6113 25.6304 46.1467 24.1658C44.6821 22.7012 42.6963 21.8774 40.625 21.875ZM4.6875 24.2188H9.59268C11.0327 24.2204 12.4132 24.7931 13.4314 25.8114C14.4496 26.8296 15.0224 28.2101 15.024 29.6501V33.654H4.6875V24.2188ZM45.3125 40.975L4.6875 40.65V36.7792H45.3125V40.975ZM45.3125 33.6542H23.4375V25H40.625C41.8678 25.0014 43.0592 25.4957 43.938 26.3745C44.8168 27.2533 45.3111 28.4447 45.3125 29.6875V33.6542Z" fill="#828282"/>
</svg>
