<svg width="166" height="33" viewBox="0 0 166 33" fill="none" xmlns="http://www.w3.org/2000/svg">
<path d="M14.2779 32.9958L-0.000488281 24.7479V8.25206L14.2779 0.00413513L28.5591 8.25206V24.7479L14.2779 32.9958ZM1.03378 24.1517L14.2779 31.8034L27.5248 24.1517V8.85106L14.2779 1.19937L1.03378 8.8483V24.1517Z" fill="#121212" fill-opacity="0.4"/>
<path d="M43.4885 23.8701C39.8479 23.8701 37.1726 21.027 37.1726 17.5213C37.1726 14.0157 39.8755 11.0897 43.5161 11.0897C45.8329 11.0897 47.2671 11.9454 48.3979 13.1876L46.6603 15.0646C45.8053 14.1537 44.8951 13.5464 43.4885 13.5464C41.4476 13.5464 39.9582 15.313 39.9582 17.4661C39.9582 19.6744 41.4752 21.441 43.6264 21.441C44.9503 21.441 45.9156 20.8061 46.7982 19.9228L48.4806 21.6066C47.2671 22.904 45.8605 23.8701 43.4885 23.8701Z" fill="#121212" fill-opacity="0.4"/>
<path d="M53.8037 23.8701H50.9905V11.1173H53.8037V14.0985C54.5759 12.2766 55.9825 11.0069 58.1338 11.1173V14.0985H57.9683C55.5137 14.0985 53.8037 15.6995 53.8037 18.9567V23.8701Z" fill="#121212" fill-opacity="0.4"/>
<path d="M72.834 11.0621L66.6284 27.293H63.7876L65.1391 23.8701L59.816 11.0621H62.8223L66.4354 20.5301L69.9105 11.0621H72.834Z" fill="#121212" fill-opacity="0.4"/>
<path d="M81.7426 23.8425C79.7293 23.8425 78.4606 22.8212 77.6056 21.6895V27.293H74.7924V11.0621H77.6056V13.3532C78.5157 12.0834 79.7844 11.0621 81.7426 11.0621C84.6386 11.0621 87.4518 13.3532 87.4518 17.4385C87.4518 21.5238 84.6662 23.8425 81.7426 23.8425ZM81.1083 13.5188C79.2052 13.5188 77.5504 15.0646 77.5504 17.4661C77.5504 19.8676 79.2328 21.4134 81.1083 21.4134C83.0389 21.4134 84.611 19.8952 84.611 17.4661C84.611 15.037 83.0113 13.5188 81.1083 13.5188Z" fill="#121212" fill-opacity="0.4"/>
<path d="M93.6022 13.7397V19.7572C93.6022 20.8338 94.1538 21.2754 95.1192 21.2754H96.2224V23.7874H94.2917C92.2508 23.7874 90.789 22.8764 90.789 20.1989V13.7397H89.2445V11.3382H90.789V7.97054H93.6022V11.3382H96.2224V13.7397H93.6022Z" fill="#121212" fill-opacity="0.4"/>
<path d="M105.076 23.8701C101.352 23.8701 98.5944 21.027 98.5944 17.5213C98.5944 13.9881 101.38 11.0897 105.131 11.0897C108.882 11.0897 111.64 13.9329 111.64 17.4661C111.64 20.9441 108.882 23.8701 105.076 23.8701ZM105.076 13.5188C102.814 13.5188 101.38 15.2854 101.38 17.4385C101.38 19.6192 102.924 21.4134 105.103 21.4134C107.365 21.4134 108.799 19.6468 108.799 17.4937C108.854 15.313 107.282 13.5188 105.076 13.5188Z" fill="#121212" fill-opacity="0.4"/>
<path d="M138.476 23.8701C134.752 23.8701 131.994 21.027 131.994 17.5213C131.994 13.9881 134.78 11.0897 138.531 11.0897C142.282 11.0897 145.04 13.9329 145.04 17.4661C145.04 20.9441 142.254 23.8701 138.476 23.8701ZM138.476 13.5188C136.214 13.5188 134.78 15.2854 134.78 17.4385C134.78 19.6192 136.324 21.4134 138.503 21.4134C140.765 21.4134 142.199 19.6468 142.199 17.4937C142.226 15.313 140.682 13.5188 138.476 13.5188Z" fill="#121212" fill-opacity="0.4"/>
<path d="M161.698 11.0621C164.374 11.0621 166.001 12.7459 166.001 15.7547V23.8425H163.188V16.6104C163.188 14.6505 162.278 13.6292 160.706 13.6292C159.189 13.6292 158.085 14.7057 158.085 16.6656V23.8701H155.272V16.6104C155.272 14.7057 154.334 13.6292 152.79 13.6292C151.245 13.6292 150.17 14.7886 150.17 16.6932V23.8701H147.357V11.0897H150.17V13.1876C150.97 12.111 152.018 11.0897 153.893 11.0897C155.658 11.0897 156.872 11.9454 157.534 13.2428C158.554 11.9178 159.851 11.0621 161.698 11.0621Z" fill="#121212" fill-opacity="0.4"/>
<path d="M116.798 21.2753V22.7107L116.715 22.8487L115.474 23.5388H115.308L114.095 22.8487L114.012 22.7107V21.2753L114.095 21.1373L115.308 20.4472H115.474L116.715 21.1373L116.798 21.2753Z" fill="#121212" fill-opacity="0.4"/>
<path d="M125.32 23.8427C121.679 23.7598 119.059 20.8615 119.114 17.3558C119.169 13.8502 121.927 10.9794 125.596 11.0622C127.912 11.1174 129.347 12.0007 130.45 13.2705L128.685 15.1199C127.857 14.209 126.947 13.5465 125.54 13.5189C123.5 13.4913 121.983 15.2028 121.955 17.3834C121.9 19.5917 123.389 21.3859 125.54 21.4135C126.864 21.4412 127.857 20.8339 128.74 19.9506L130.395 21.662C129.154 22.9593 127.719 23.8979 125.32 23.8427Z" fill="#121212" fill-opacity="0.4"/>
</svg>
