<svg width="21" height="21" viewBox="0 0 21 21" fill="none" xmlns="http://www.w3.org/2000/svg">
<path d="M3.22244 12.9178L6.48269 9.65758L9.19286 12.3687L12.2183 9.34325L10.5 7.62496H15.2917V12.4166L13.5734 10.6983L9.19286 15.0789L6.48269 12.3687L4.11082 14.7396C5.18742 16.36 6.83979 17.5106 8.73308 17.958C10.6264 18.4055 12.619 18.1165 14.3071 17.1495C15.9952 16.1826 17.2526 14.61 17.8245 12.7505C18.3964 10.891 18.2399 8.88364 17.3868 7.13519C16.5338 5.38674 15.0479 4.02798 13.2304 3.33426C11.4128 2.64053 9.39947 2.66374 7.59837 3.39916C5.79728 4.13458 4.34312 5.52722 3.53058 7.29487C2.71804 9.06251 2.60789 11.073 3.22244 12.9188V12.9178ZM1.74853 14.4109L1.73894 14.4013L1.74278 14.3975C1.19646 13.1708 0.914974 11.8428 0.916695 10.5C0.916695 5.20708 5.20715 0.916626 10.5 0.916626C15.7929 0.916626 20.0834 5.20708 20.0834 10.5C20.0834 15.7928 15.7929 20.0833 10.5 20.0833C6.59961 20.0833 3.24544 17.7545 1.74853 14.4109Z" fill="#2EB67D"/>
</svg>
